<?xml version="1.0" encoding="UTF-8" standalone="no"?>
<!-- Created with Inkscape (http://www.inkscape.org/) -->

<svg
   xmlns:dc="http://purl.org/dc/elements/1.1/"
   xmlns:cc="http://creativecommons.org/ns#"
   xmlns:rdf="http://www.w3.org/1999/02/22-rdf-syntax-ns#"
   xmlns:svg="http://www.w3.org/2000/svg"
   xmlns="http://www.w3.org/2000/svg"
   xmlns:sodipodi="http://sodipodi.sourceforge.net/DTD/sodipodi-0.dtd"
   xmlns:inkscape="http://www.inkscape.org/namespaces/inkscape"
   id="svg3066"
   version="1.1"
   inkscape:version="0.48.3.1 r9886"
   width="101"
   height="101"
   sodipodi:docname="munge.svg">
  <metadata
     id="metadata3072">
    <rdf:RDF>
      <cc:Work
         rdf:about="">
        <dc:format>image/svg+xml</dc:format>
        <dc:type
           rdf:resource="http://purl.org/dc/dcmitype/StillImage" />
        <dc:title></dc:title>
      </cc:Work>
    </rdf:RDF>
  </metadata>
  <defs
     id="defs3070" />
  <sodipodi:namedview
     pagecolor="#ffffff"
     bordercolor="#666666"
     borderopacity="1"
     objecttolerance="10"
     gridtolerance="10"
     guidetolerance="10"
     inkscape:pageopacity="0"
     inkscape:pageshadow="2"
     inkscape:window-width="1920"
     inkscape:window-height="1113"
     id="namedview3068"
     showgrid="false"
     inkscape:zoom="1.6522495"
     inkscape:cx="61.414406"
     inkscape:cy="21.430331"
     inkscape:window-x="0"
     inkscape:window-y="33"
     inkscape:window-maximized="1"
     inkscape:current-layer="svg3066" />
  <path
     inkscape:connector-curvature="0"
     id="path3078-8"
     d="m 18.152535,98.10827 c -9.62505,-23.86232 -4.97337,-48.11411 3.42911,-64.736742 7.75402,-12.666117 18.61018,-15.745268 31.32762,-18.700648 11.53107,-2.848198 14.72556,-4.445236 15.40104,-7.699469 0.658,-3.170023 4.3723,-5.302117 6.1929,-3.554865 1.78031,1.708593 3.06,8.153483 1.85943,9.364656 -0.59358,0.598802 -1.89591,3.374751 -2.89408,6.168751 -1.18416,3.314601 -2.6188,5.401346 -4.12821,6.004695 -3.32273,1.328179 -4.3468,3.125535 -3.57346,6.271872 1.00404,4.085018 -1.69817,7.539752 -6.89685,8.817521 -3.91313,0.386697 -3.43766,1.880354 -2.62693,5.120902 0.97436,3.353417 1.1011,6.904607 -5.57178,7.635687 -6.40831,0.7021 -10.02488,3.93039 -10.39548,9.27934 -0.14128,2.03915 -0.73686,4.63649 -1.32355,5.77182 -1.23721,2.39428 -6.45396,3.98406 -8.73284,2.66131 -1.25999,-0.73136 -1.40045,-0.54913 -0.73443,0.95283 0.68265,1.5395 1.72455,1.68956 6.09186,0.8775 6.25298,-1.16284 8.07607,-3.19112 7.64896,-8.50979 -0.55241,-6.8787 2.41372,-8.84447 10.40213,-6.89401 5.85652,1.42992 9.21226,-0.44848 9.03126,-5.05539 -0.19552,-4.976012 0.38059,-5.656625 5.94597,-7.024524 4.3023,-1.057451 5.40249,-1.733347 6.20989,-3.814963 0.53967,-1.391406 0.6871,-3.726553 0.32759,-5.189221 -0.81235,-3.305132 1.34475,-6.782799 7.18198,-11.578712 4.99953,-4.107657 8.63421,-4.744772 11.14433,-1.953458 1.52648,1.697476 1.91927,5.793552 0.55172,5.753452 -0.39308,-0.01153 -1.98796,0.593651 -3.54415,1.344841 -2.29936,1.109927 -2.86789,2.132726 -3.03465,5.459388 0.63495,13.523847 -4.7806,35.235907 -13.10602,43.314457 -19.17124,18.60277 -37.62378,19.30761 -56.18337,19.91289 z"
     style="fill:#0000cd;fill-opacity:1"
     sodipodi:nodetypes="cccssssssccsssssssssssssssscsc" />
  <g
     inkscape:groupmode="layer"
     id="layer1"
     inkscape:label="Layer"
     style="opacity:0.2919708" />
  <g
     inkscape:groupmode="layer"
     id="layer2"
     inkscape:label="Layer#1" />
  <path
     style="fill:none;stroke:#000000;stroke-width:1px;stroke-linecap:butt;stroke-linejoin:miter;stroke-opacity:1"
     d="m 19.216225,99.03298 c -0.0138,-0.007 -0.65294,-0.24672 -0.75654,-0.45392 -0.0226,-0.0451 0.0225,-0.1062 0,-0.15131 -0.0319,-0.0638 -0.10088,-0.10087 -0.15131,-0.15131 -0.10087,-0.10087 -0.22349,-0.18392 -0.30262,-0.30262 -0.056,-0.0839 0.0713,-0.23129 0,-0.30262 -0.0798,-0.0797 -0.22287,-0.0716 -0.30262,-0.1513 -0.0357,-0.0357 0.0226,-0.1062 0,-0.15131 -0.0744,-0.1489 -0.53079,-0.45635 -0.60523,-0.60524 -0.0226,-0.0451 0.0226,-0.1062 0,-0.15131 -0.0319,-0.0638 -0.11941,-0.0875 -0.15131,-0.15131 -0.0226,-0.0451 0.0225,-0.10619 0,-0.1513 -0.0319,-0.0638 -0.11941,-0.0875 -0.15131,-0.15131 -0.0451,-0.0902 0.0713,-0.23129 0,-0.30262 -0.0357,-0.0357 -0.11565,0.0357 -0.15131,0 -0.0357,-0.0357 0.0226,-0.1062 0,-0.15131 -0.0319,-0.0638 -0.11941,-0.0875 -0.15131,-0.15131 -0.0225,-0.0451 0,-0.10087 0,-0.15131 -0.0504,-0.10087 -0.0888,-0.20878 -0.15131,-0.30262 -0.50183,-0.50182 0.0713,0.14266 -0.15131,-0.30261 -0.0319,-0.0638 -0.11941,-0.0875 -0.1513,-0.15131 -0.0226,-0.0451 0.0225,-0.1062 0,-0.15131 -0.0319,-0.0638 -0.11942,-0.0875 -0.15131,-0.15131 -0.0451,-0.0902 0.0713,-0.23129 0,-0.30262 -0.0357,-0.0357 -0.11565,0.0357 -0.15131,0 -0.0713,-0.0713 0.0451,-0.21239 0,-0.30262 -0.0319,-0.0638 -0.11941,-0.0875 -0.15131,-0.1513 -0.0483,-0.0967 0.0406,-0.48345 0,-0.60524 -0.0357,-0.10699 -0.11565,-0.19563 -0.15131,-0.30262 -0.0196,-0.0589 0.0235,-0.43044 0,-0.45392 -0.0357,-0.0357 -0.11565,0.0357 -0.15131,0 -0.0713,-0.0713 0.0451,-0.2124 0,-0.30262 -0.0319,-0.0638 -0.11941,-0.0875 -0.15131,-0.15131 -0.0605,-0.12105 0.0605,-0.33288 0,-0.45393 -0.0319,-0.0638 -0.11941,-0.0875 -0.15131,-0.15131 -0.0677,-0.13533 0.0677,-0.31859 0,-0.45392 -0.0225,-0.0451 -0.11564,0.0357 -0.15131,0 -0.0713,-0.0713 0.0451,-0.2124 0,-0.30262 -0.0319,-0.0638 -0.11941,-0.0875 -0.1513,-0.15131 -0.0451,-0.0902 0.0713,-0.23129 0,-0.30262 -0.0357,-0.0357 -0.11565,0.0357 -0.15131,0 -0.0357,-0.0357 0.0225,-0.10619 0,-0.15131 -0.0319,-0.0638 -0.11941,-0.0875 -0.15131,-0.1513 -0.0226,-0.0451 0.0357,-0.11565 0,-0.15131 -0.0357,-0.0357 -0.11565,0.0357 -0.15131,0 -0.0713,-0.0713 0.0451,-0.2124 0,-0.30262 -0.0319,-0.0638 -0.11941,-0.0875 -0.15131,-0.15131 -0.0226,-0.0451 0.0357,-0.11565 0,-0.15131 -0.0357,-0.0357 -0.11565,0.0357 -0.15131,0 -0.0357,-0.0357 0.0226,-0.1062 0,-0.15131 -0.0638,-0.12759 -0.23882,-0.17502 -0.30262,-0.30262 -0.0225,-0.0451 0.0357,-0.11564 0,-0.1513 -0.0357,-0.0357 -0.11564,0.0357 -0.15131,0 -0.0713,-0.0713 0.0713,-0.23129 0,-0.30262 -0.0357,-0.0357 -0.11564,0.0357 -0.1513,0 -0.0357,-0.0357 0.0225,-0.1062 0,-0.15131 -0.0319,-0.0638 -0.11941,-0.0875 -0.15131,-0.15131 -0.0451,-0.0902 0.0713,-0.23129 0,-0.30262 -0.0357,-0.0357 -0.11565,0.0357 -0.15131,0 -0.0357,-0.0357 0.0357,-0.11564 0,-0.15131 -0.0357,-0.0357 -0.11565,0.0357 -0.15131,0 -0.0713,-0.0713 0.0713,-0.23129 0,-0.30261 -0.0357,-0.0357 -0.11565,0.0357 -0.15131,0 -0.0357,-0.0357 0.0226,-0.1062 0,-0.15131 -0.0319,-0.0638 -0.10087,-0.10088 -0.15131,-0.15131 -0.0504,-0.0504 -0.0875,-0.11941 -0.15131,-0.15131 -0.40349,0 0.0504,0.0504 -0.15131,-0.15131 -0.0357,-0.0357 -0.11564,0.0357 -0.15131,0 -0.0357,-0.0357 0.0357,-0.11565 0,-0.15131 -0.0357,-0.0357 -0.11564,0.0357 -0.1513,0 -0.0357,-0.0357 0.0357,-0.11564 0,-0.15131 -0.0713,-0.0713 -0.23129,0.0713 -0.30262,0 -0.0357,-0.0357 0.0357,-0.11564 0,-0.15131 -0.0357,-0.0357 -0.1062,0.0226 -0.15131,0 -0.0638,-0.0319 -0.0875,-0.11941 -0.15131,-0.15131 -0.0451,-0.0225 -0.1062,0.0226 -0.15131,0 -0.50183,-0.50182 0.14266,0.0713 -0.30262,-0.1513 -0.0638,-0.0319 -0.0875,-0.11941 -0.15131,-0.15131 -0.06,-0.03 -0.42299,0.0309 -0.45392,0 -0.0357,-0.0357 0.0357,-0.11565 0,-0.15131 -0.0757,-0.0757 -0.37827,0.0756 -0.45393,0 -0.0357,-0.0357 0.0357,-0.11565 0,-0.15131 -0.0713,-0.0713 -0.21239,0.0451 -0.30262,0 -0.0638,-0.0319 -0.0875,-0.11941 -0.15131,-0.15131 -0.12104,-0.0605 -0.33287,0.0605 -0.45392,0 -0.0638,-0.0319 -0.0875,-0.11941 -0.15131,-0.15131 -0.12105,-0.0605 -0.33288,0.0605 -0.45393,0 -0.0638,-0.0319 -0.0875,-0.11941 -0.15131,-0.15131 -0.0821,-0.041 -0.56383,0.0414 -0.60523,0 -0.0357,-0.0357 0.0357,-0.11564 0,-0.15131 -0.0357,-0.0357 -0.10087,0 -0.15131,0 -0.0504,0 -0.10087,0 -0.15131,0 -0.65567,0 -1.31134,0 -1.96701,0 -0.30262,0 -0.60524,0 -0.90786,0 -0.0504,0 -0.10087,0 -0.15131,0 -0.0504,0 -0.10619,-0.0225 -0.15131,0 -0.0638,0.0319 -0.0875,0.11941 -0.1513,0.15131 -0.0451,0.0226 -0.1062,-0.0225 -0.15131,0 -0.18157,0.0908 -0.27236,0.36314 -0.45393,0.45393 -0.0451,0.0225 -0.11564,-0.0357 -0.15131,0 -0.0357,0.0357 0.0357,0.11564 0,0.15131 -0.0357,0.0357 -0.1062,-0.0226 -0.15131,0 -0.0638,0.0319 -0.0875,0.11941 -0.15131,0.15131 -0.0451,0.0225 -0.11564,-0.0357 -0.15131,0 -0.0357,0.0357 0.0357,0.11564 0,0.15131 -0.15126,0.15126 -0.15135,-0.15126 -0.30261,0 -0.0357,0.0357 0.0357,0.11564 0,0.1513 -0.0357,0.0357 -0.11565,-0.0357 -0.15131,0 -0.0357,0.0357 0.0357,0.11565 0,0.15131 -0.15126,0.15126 -0.15136,-0.15126 -0.30262,0 -0.0357,0.0357 0.0357,0.11565 0,0.15131 -0.0357,0.0357 -0.1062,-0.0225 -0.15131,0 -0.18157,0.0908 -0.27235,0.36314 -0.45393,0.45393 -0.0451,0.0225 -0.10619,-0.0226 -0.1513,0 -0.1276,0.0638 -0.17503,0.23882 -0.30261999,0.30262 -0.0451,0.0225 -0.11565,-0.0357 -0.15131,0 -0.0357,0.0357 0.0357,0.11564 0,0.15131 -0.0357,0.0357 -0.1062,-0.0226 -0.15131,0 -0.0638,0.0319 -0.0875,0.11941 -0.15131,0.1513 -0.0902,0.0451 -0.21239,-0.0451 -0.30262,0 -0.12759,0.0638 -0.17502,0.23882 -0.30261,0.30262 -0.0902,0.0451 -0.23129,-0.0713 -0.30262,0 -0.0357,0.0357 0.0357,0.11565 0,0.15131 -0.0357,0.0357 -0.1062,-0.0226 -0.15131,0 -0.0638,0.0319 -0.10087,0.10087 -0.15131,0.15131 -0.0504,0.0504 -0.11941,0.0875 -0.15131,0.15131 -0.0225,0.0451 0.0357,0.11564 0,0.15131 -0.0357,0.0357 -0.11564001,-0.0357 -0.15131001,0 -0.0713,0.0713 0.0713,0.23129 0,0.30262 -0.0357,0.0357 -0.11564,-0.0357 -0.15131,0 -0.0357,0.0357 0,0.10087 0,0.1513 0,0.10725 0.0196,0.86874 0,0.90786 -0.0319,0.0638 -0.11941,0.0875 -0.1513,0.15131 -0.0274,0.0547 0,0.6513 0,0.75654 0,0.65567 0,1.31134 0,1.96702 0,0.50436 0,1.00872 0,1.51308 0,0.10449 0.023,0.55924 0,0.60524 -0.0319,0.0638 -0.11941,0.0875 -0.15131,0.15131 -0.0605,0.12105 0.0605,0.33288 0,0.45393 -0.0319,0.0638 -0.11941,0.0875 -0.15131,0.1513 -0.0451,0.0902 0.0451,0.2124 0,0.30262 -0.0319,0.0638 -0.11941,0.0875 -0.15131,0.15131 -0.041,0.0821 0.0414,0.56383 0,0.60524 -0.0357,0.0357 -0.11565,-0.0357 -0.15131,0 -0.0756,0.0756 0.0757,0.37827 0,0.45392 -0.0357,0.0357 -0.11565,-0.0357 -0.15131,0 -0.0357,0.0357 0.0226,0.1062 0,0.15131 -0.0319,0.0638 -0.11941,0.0875 -0.15131,0.15131 -0.0225,0.0451 0.0357,0.11565 0,0.15131 -0.0357,0.0357 -0.11564,-0.0357 -0.15131,0 -0.0357,0.0357 0.0357,0.11564 0,0.15131 -0.0357,0.0357 -0.10619,-0.0226 -0.15131,0 -0.0638,0.0319 -0.0875,0.11941 -0.1513,0.15131 -0.0451,0.0226 -0.11565,-0.0357 -0.15131,0 -0.0357,0.0357 0.0225,0.10619 0,0.15131 -0.31486,0.62971 0.0104,-0.16176 -0.30262,0.1513 -0.0357,0.0357 0.0225,0.1062 0,0.15131 -0.0319,0.0638 -0.10087,0.10088 -0.15131,0.15131 -0.0504,0.0504 -0.0875,0.11941 -0.15131,0.15131 -0.0451,0.0226 -0.11564,-0.0357 -0.15131,0 -0.0357,0.0357 0.0357,0.11565 0,0.15131 -0.0357,0.0357 -0.10619,-0.0226 -0.15131,0 -0.0638,0.0319 -0.0875,0.11941 -0.15131,0.15131 -0.0902,0.0451 -0.23129,-0.0713 -0.30261,0 -0.0357,0.0357 0.0357,0.11564 0,0.15131 -0.0357,0.0357 -0.10088,0 -0.15131,0 -0.12181,0 -0.51027,0.0316 -0.60524,0 -0.10699,-0.0357 -0.19562,-0.11565 -0.30262,-0.15131 -0.0957,-0.0319 -0.20692,0.0319 -0.30261,0 -0.10699,-0.0357 -0.19563,-0.11565 -0.30262,-0.15131 -0.0479,-0.016 -0.1062,0.0226 -0.15131,0 -0.0638,-0.0319 -0.0875,-0.11941 -0.15131,-0.15131 -0.0451,-0.0225 -0.1062,0.0226 -0.15131,0 -0.0638,-0.0319 -0.0875,-0.11941 -0.15131,-0.15131 -0.0451,-0.0225 -0.10619,0.0226 -0.1513,0 -0.0638,-0.0319 -0.0875,-0.11941 -0.15131,-0.15131 -0.0451,-0.0225 -0.1062,0.0226 -0.15131,0 -0.0638,-0.0319 -0.092,-0.11174 -0.15131,-0.15131 -0.0282,-0.0188 -0.59554,-0.29292 -0.60524,-0.30261 -0.0357,-0.0357 0.0357,-0.11565 0,-0.15131 -0.0713,-0.0713 -0.21239,0.0451 -0.30261,0 -0.0638,-0.0319 -0.0875,-0.11941 -0.15131,-0.15131 -0.0451,-0.0226 -0.1062,0.0226 -0.15131,0 -0.62971,-0.31486 0.16175,0.0104 -0.15131,-0.30262 -0.0357,-0.0357 -0.11565,0.0357 -0.15131,0 -0.0357,-0.0357 0,-0.10087 0,-0.15131 -0.0504,0 -0.1062,0.0226 -0.15131,0 -0.33455,-0.16727 -0.0469,-0.0939 -0.15131,-0.30261 -0.0638,-0.1276 -0.23882,-0.17503 -0.30262,-0.30262 -0.0225,-0.0451 0.0357,-0.11565 0,-0.15131 -0.0357,-0.0357 -0.11564,0.0357 -0.1513,0 -0.0357,-0.0357 0.0226,-0.1062 0,-0.15131 -0.0638,-0.1276 -0.23882,-0.17502 -0.30262,-0.30262 -0.0226,-0.0451 0.0225,-0.1062 0,-0.15131 -0.0319,-0.0638 -0.11941,-0.0875 -0.15131,-0.15131 -0.0226,-0.0451 0.0357,-0.11564 0,-0.1513 -0.0357,-0.0357 -0.11565,0.0357 -0.15131,0 -0.31306,-0.31307 0.4784,0.0122 -0.15131,-0.30262 -0.20871,-0.10436 -0.13534,0.18324 -0.30262,-0.15131 -0.0225,-0.0451 0.0357,-0.11565 0,-0.15131 -0.2521,-0.2521 -0.0505,0.2521 -0.30261,0 -0.0357,-0.0357 0.0357,-0.11565 0,-0.15131 -0.0357,-0.0357 -0.10088,0 -0.15131,0 -0.30262,0 -0.60524,0 -0.90786,0 -0.35305,0 -0.7061,0 -1.05916,0 -0.0681,0 -0.40788,-0.023 -0.45393,0 -0.0638,0.0319 -0.0875,0.11941 -0.1513,0.15131 -0.06,0.03 -0.423,-0.0309 -0.45393,0 -0.31306,0.31306 0.4784,-0.0122 -0.15131,0.30262 -0.0451,0.0225 -0.1062,-0.0226 -0.15131,0 -0.0638,0.0319 -0.0875,0.11941 -0.15131,0.15131 -0.20871,0.10435 -0.13534,-0.18325 -0.30261,0.15131 0,0.40349 0.0504,-0.0504 -0.15131,0.1513 -0.0357,0.0357 0.0357,0.11565 0,0.15131 -0.0357,0.0357 -0.11565,-0.0357 -0.15131,0 -0.0357,0.0357 0.0357,0.11565 0,0.15131 -0.0357,0.0357 -0.1062,-0.0225 -0.15131,0 -0.1276,0.0638 -0.17502,0.23882 -0.30262,0.30262 -0.0451,0.0226 -0.11564,-0.0357 -0.15131,0 -0.0357,0.0357 0.0357,0.11564 0,0.15131 -0.0357,0.0357 -0.11564,-0.0357 -0.15131,0 -0.0357,0.0357 0.0226,0.1062 0,0.15131 -0.0319,0.0638 -0.11941,0.0875 -0.15131,0.15131 -0.0225,0.0451 0.0226,0.10619 0,0.15131 -0.12612,0.25225 -0.30261,0.0684 -0.30261,0.45392 0,0.35485 0.0357,-0.0713 -0.15131,0.30262 -0.0451,0.0902 0.0451,0.21239 0,0.30262 -0.0319,0.0638 -0.11941,0.0875 -0.15131,0.15131 -0.0605,0.12104 0.0605,0.33288 0,0.45392 -0.0319,0.0638 -0.11941,0.0875 -0.15131,0.15131 -0.023,0.0461 0,0.38579 0,0.45393 0,0.20174 0,0.40349 0,0.60523 0,0.0504 0,0.10088 0,0.15131 0,0.0504 -0.0357,0.18698 0,0.15131 0.28233,-0.28233 0.0703,-0.44326 0.15131,-0.60523 0.0319,-0.0638 0.11941,-0.0875 0.15131,-0.15131 0.0225,-0.0451 -0.0357,-0.11565 0,-0.15131 0.0357,-0.0357 0.11564,0.0357 0.15131,0 0.0756,-0.0757 -0.0757,-0.37827 0,-0.45393 0.0357,-0.0357 0.11564,0.0357 0.15131,0 0.0357,-0.0357 -0.0226,-0.1062 0,-0.15131 0.0319,-0.0638 0.11941,-0.0875 0.1513,-0.15131 0.0451,-0.0902 -0.0713,-0.23129 0,-0.30261 0.0357,-0.0357 0.11565,0.0357 0.15131,0 0.0357,-0.0357 -0.0357,-0.11565 0,-0.15131 0.0357,-0.0357 0.11565,0.0357 0.15131,0 0.0357,-0.0357 -0.0357,-0.11565 0,-0.15131 0.0357,-0.0357 0.10087,0 0.15131,0 0,-0.0504 -0.0225,-0.1062 0,-0.15131 0.0319,-0.0638 0.10087,-0.10087 0.15131,-0.15131 0.0504,-0.0504 0.0875,-0.11941 0.15131,-0.15131 0.0451,-0.0225 0.11564,0.0357 0.15131,0 0.0357,-0.0357 -0.0357,-0.11564 0,-0.15131 0.006,-0.006 0.54967,0 0.60523,0 0.15131,0 0.30262,0 0.45393,0 0.0504,0 0.20174,0 0.15131,0 -0.10087,0 -0.40349,0 -0.30262,0 0.15131,0 0.30262,0 0.45393,0 0.0367,0 0.44906,-0.005 0.45392,0 0.0357,0.0357 -0.0357,0.11565 0,0.15131 0.0357,0.0357 0.1062,-0.0225 0.15131,0 0.0638,0.0319 0.0875,0.11941 0.15131,0.15131 0.0451,0.0226 0.1062,-0.0226 0.15131,0 0.0638,0.0319 0.0875,0.11941 0.15131,0.15131 0.0902,0.0451 0.23129,-0.0713 0.30262,0 0.20174,0.20174 -0.25218,0.15131 0.15131,0.15131 0.40349,0 -0.0504,-0.0504 0.1513,0.15131 0.0357,0.0357 0.11565,-0.0357 0.15131,0 0.0713,0.0713 -0.0713,0.23129 0,0.30261 0.0357,0.0357 0.11565,-0.0357 0.15131,0 0.0713,0.0713 -0.0713,0.2313 0,0.30262 0.0357,0.0357 0.11565,-0.0357 0.15131,0 0.0713,0.0713 -0.0319,0.20692 0,0.30262 0.0713,0.21398 0.23129,0.39125 0.30262,0.60524 0.016,0.0478 -0.0226,0.10619 0,0.1513 0.0319,0.0638 0.11941,0.0875 0.15131,0.15131 0.0451,0.0902 -0.0451,0.2124 0,0.30262 0.0319,0.0638 0.11941,0.0875 0.15131,0.15131 0.0451,0.0902 -0.0713,0.23129 0,0.30262 0.0357,0.0357 0.11564,-0.0357 0.15131,0 0.0357,0.0357 -0.0226,0.1062 0,0.15131 0.0638,0.12759 0.23882,0.17502 0.30261,0.30261 0.0226,0.0451 -0.0225,0.1062 0,0.15131 0.0908,0.18157 0.36314,0.27236 0.45393,0.45393 0.0226,0.0451 0,0.10087 0,0.15131 0.0504,0.0504 0.11941,0.0875 0.15131,0.15131 0.0225,0.0451 -0.0357,0.11564 0,0.15131 0.0357,0.0357 0.1062,-0.0226 0.15131,0 0.18157,0.0908 0.27235,0.36314 0.45392,0.45392 0.0451,0.0226 0.11565,-0.0357 0.15131,0 0.0357,0.0357 -0.0357,0.11565 0,0.15131 0.0357,0.0357 0.11565,-0.0357 0.15131,0 0.0357,0.0357 -0.0357,0.11565 0,0.15131 0.0357,0.0357 0.1062,-0.0225 0.15131,0 0.0638,0.0319 0.0875,0.11941 0.15131,0.15131 0.0451,0.0226 0.11564,-0.0357 0.15131,0 0.0357,0.0357 -0.0357,0.11564 0,0.15131 0.0357,0.0357 0.11564,-0.0357 0.15131,0 0.0357,0.0357 -0.0357,0.11564 0,0.15131 0.0713,0.0713 0.23129,-0.0713 0.30262,0 0.0357,0.0357 -0.0226,0.10619 0,0.15131 0.31485,0.62971 -0.0104,-0.16176 0.30261,0.15131 0.0357,0.0357 -0.0357,0.11564 0,0.1513 0.0357,0.0357 0.1062,-0.0225 0.15131,0 0.0638,0.0319 0.0875,0.11941 0.15131,0.15131 0.0955,0.0477 0.66109,-0.0477 0.75655,0 0.0638,0.0319 0.0875,0.11941 0.1513,0.15131 0.0461,0.023 0.38579,0 0.45393,0 0.0556,0 0.59915,-0.006 0.60524,0 0.0357,0.0357 -0.0357,0.11565 0,0.15131 0.0531,0.0531 0.65203,-0.0523 0.75654,0 0.0638,0.0319 0.0875,0.11941 0.15131,0.15131 0.0461,0.023 0.38578,0 0.45393,0 0.35305,0 0.7061,0 1.05916,0 0.0504,0 0.10087,0 0.15131,0 0.0504,0 0.11564,0.0357 0.15131,0 0.0357,-0.0357 -0.0357,-0.11565 0,-0.15131 0.0357,-0.0357 0.10087,0 0.1513,0 0.10525,0 0.70183,0.0274 0.75655,0 0.0638,-0.0319 0.0875,-0.11941 0.15131,-0.15131 0.0902,-0.0451 0.21239,0.0451 0.30262,0 0.0638,-0.0319 0.0875,-0.11941 0.1513,-0.15131 0.0902,-0.0451 0.21240001,0.0451 0.30262001,0 0.69248,-0.34624 -0.64206001,0.0627 0.45393,-0.30261 0.0957,-0.0319 0.23129,0.0713 0.30262,0 0.0357,-0.0357 -0.0357,-0.11565 0,-0.15131 0.0357,-0.0357 0.10619,0.0225 0.1513099969402,0 C 0.06380501,102.78381 0.08750501,102.6963 0.15130501,102.6644 c 0.0451,-0.0226 0.1062,0.0225 0.15131,0 0.0638,-0.0319 0.0875,-0.11941 0.15131,-0.15131 0.0451,-0.0226 0.1062,0.0225 0.15131,0 0.0638,-0.0319 0.0875,-0.11941 0.15131,-0.15131 0.0451,-0.0226 0.1062,0.0226 0.15131,0 0.0638,-0.0319 0.0875,-0.11941 0.15130999,-0.15131 0.0451,-0.0225 0.11564,0.0357 0.15131,0 0.0357,-0.0357 -0.0357,-0.11564 0,-0.15131 0.0357,-0.0357 0.10619,0.0226 0.1513,0 0.1276,-0.0638 0.17503,-0.23882 0.30262,-0.30262 0.0451,-0.0225 0.1062,0.0226 0.15131,0 0.33455,-0.16727 0.047,-0.0939 0.15131,-0.30261 0.31486,-0.62971 -0.0104,0.16175 0.30262,-0.15131 0.0357,-0.0357 -0.0357,-0.11565 0,-0.15131 0.0357,-0.0357 0.1062,0.0225 0.15131,0 0.0638,-0.0319 0.10087,-0.10087 0.15131,-0.15131 0.0504,-0.0504 0.11941,-0.0875 0.1513,-0.15131 0.0226,-0.0451 -0.0357,-0.11564 0,-0.15131 0.0357,-0.0357 0.1062,0.0226 0.15131,0 0.1276,-0.0638 0.17503,-0.23882 0.30262,-0.30262 0.0451,-0.0225 0.11565,0.0357 0.15131,0 0.0357,-0.0357 -0.0357,-0.11564 0,-0.1513 0.0357,-0.0357 0.11565,0.0357 0.15131,0 0.0357,-0.0357 -0.0226,-0.1062 0,-0.15131 0.0319,-0.0638 0.11941,-0.0875 0.15131,-0.15131 0.0225,-0.0451 -0.0226,-0.1062 0,-0.15131 0.0319,-0.0638 0.11941,-0.0875 0.15131,-0.15131 0.0226,-0.0451 0,-0.10087 0,-0.15131 0.0504,-0.0504 0.11941,-0.0875 0.15131,-0.15131 0.0196,-0.0391 0,-0.8006 0,-0.90785 0,-0.0504 -0.0357,-0.11565 0,-0.15131 0.0357,-0.0357 0.11564,0.0357 0.1513,0 0.0357,-0.0357 0,-0.10087 0,-0.15131 0,-0.0504 0,-0.10087 0,-0.15131 0,-0.25218 0,-0.50436 0,-0.75654 0,-0.0504 0,-0.10087 0,-0.15131 0,-0.0504 -0.0225,-0.1062 0,-0.15131 0.0319,-0.0638 0.11941,-0.0875 0.15131,-0.15131 0.0226,-0.0451 0,-0.10087 0,-0.15131 0,-0.10725 -0.0196,-0.86873 0,-0.90785 0.0319,-0.0638 0.11941,-0.0875 0.15131,-0.15131 0.0274,-0.0547 0,-0.6513 0,-0.75654 0,-0.0504 -0.0357,-0.11565 0,-0.15131 0.0357,-0.0357 0.11565,0.0357 0.15131,0 0.0414,-0.0414 -0.041,-0.52315 0,-0.60524 0.0319,-0.0638 0.11941,-0.0875 0.15131,-0.15131 0.0605,-0.12104 -0.0605,-0.33288 0,-0.45392 0.0319,-0.0638 0.11941,-0.0875 0.15131,-0.15131 0.0225,-0.0451 -0.0357,-0.11565 0,-0.15131 0.0357,-0.0357 0.11564,0.0357 0.15131,0 0.0357,-0.0357 -0.0357,-0.11565 0,-0.15131 0.0357,-0.0357 0.11564,0.0357 0.15131,0 0.0357,-0.0357 -0.0357,-0.11564 0,-0.15131 0.0357,-0.0357 0.11564,0.0357 0.15131,0 0.0357,-0.0357 -0.0357,-0.11564 0,-0.15131 0.0713,-0.0713 0.21239,0.0451 0.30261,0 0.0638,-0.0319 0.0875,-0.11941 0.15131,-0.15131 0.0451,-0.0226 0.11565,0.0357 0.15131,0 0.0357,-0.0357 -0.0357,-0.11564 0,-0.15131 0.0357,-0.0357 0.1062,0.0226 0.15131,0 0.0638,-0.0319 0.0875,-0.11941 0.15131,-0.1513 0.0451,-0.0226 0.11564,0.0357 0.15131,0 0.0357,-0.0357 -0.0357,-0.11565 0,-0.15131 0.0357,-0.0357 0.11564,0.0357 0.15131,0 0.0357,-0.0357 -0.0357,-0.11565 0,-0.15131 0.0357,-0.0357 0.11564,0.0357 0.15131,0 0.0357,-0.0357 -0.0357,-0.11565 0,-0.15131 0.0713,-0.0713 0.23129,0.0713 0.30261,0 0.0357,-0.0357 -0.0357,-0.11565 0,-0.15131 0.0357,-0.0357 0.11565,0.0357 0.15131,0 0.0357,-0.0357 -0.0357,-0.11564 0,-0.15131 0.0357,-0.0357 0.11565,0.0357 0.15131,0 0.0357,-0.0357 -0.0357,-0.11564 0,-0.15131 0.0357,-0.0357 0.10087,0 0.15131,0 0.0504,0 0.10087,0 0.15131,0 0.45393,0 0.90785,0 1.36178,0 0.65567,0 1.31134,0 1.96701,0 0.15238,0 0.82418,-0.0279 0.90786,0 0.0677,0.0226 0.0875,0.11941 0.15131,0.15131 0.12104,0.0605 0.33288,-0.0605 0.45392,0 0.0638,0.0319 0.0875,0.11941 0.15131,0.15131 0.0902,0.0451 0.23129,-0.0713 0.30262,0 0.0357,0.0357 -0.0357,0.11565 0,0.15131 0.0357,0.0357 0.11564,-0.0357 0.15131,0 0.0357,0.0357 -0.0357,0.11564 0,0.15131 0.0713,0.0713 0.23129,-0.0713 0.30262,0 0.0357,0.0357 -0.0357,0.11564 0,0.15131 0.0713,0.0713 0.21239,-0.0451 0.30261,0 0.0638,0.0319 0.0875,0.11941 0.15131,0.15131 0.0451,0.0225 0.1062,-0.0226 0.15131,0 0.0638,0.0319 0.0875,0.11941 0.15131,0.1513 0.0451,0.0226 0.1062,-0.0225 0.15131,0 0.0638,0.0319 0.10087,0.10088 0.15131,0.15131 0.0504,0.0504 0.11941,0.0875 0.15131,0.15131 0.0225,0.0451 -0.0357,0.11565 0,0.15131 0.0357,0.0357 0.11564,-0.0357 0.15131,0 0.0357,0.0357 -0.0226,0.1062 0,0.15131 0.0319,0.0638 0.11941,0.0875 0.1513,0.15131 0.0226,0.0451 -0.0357,0.11564 0,0.15131 0.0357,0.0357 0.11565,-0.0357 0.15131,0 0.0713,0.0713 -0.0451,0.21239 0,0.30262 0.31486,0.62971 -0.0104,-0.16176 0.30262,0.1513 0.0357,0.0357 -0.0357,0.11565 0,0.15131 0.0357,0.0357 0.11565,-0.0357 0.15131,0 0.0357,0.0357 -0.0357,0.11565 0,0.15131 0.0713,0.0713 0.23129,-0.0713 0.30262,0 0.0357,0.0357 -0.0357,0.11565 0,0.15131 0.0357,0.0357 0.11564,-0.0357 0.15131,0 0.0357,0.0357 -0.0357,0.11565 0,0.15131 0.0357,0.0357 0.11564,-0.0357 0.15131,0 0.0357,0.0357 -0.0357,0.11564 0,0.15131 0.0357,0.0357 0.11564,-0.0357 0.1513,0 0.0713,0.0713 -0.0451,0.21239 0,0.30262 0.0319,0.0638 0.11941,0.0875 0.15131,0.15131 0.0226,0.0451 0,0.10087 0,0.1513 0.0504,0.0504 0.11941,0.0875 0.15131,0.15131 0.0226,0.0451 -0.0357,0.11565 0,0.15131 0.0357,0.0357 0.11565,-0.0357 0.15131,0 0.005,0.005 0,0.41723 0,0.45393 0,0.0504 0.0357,0.11564 0,0.15131 -0.0357,0.0357 -0.11564,-0.0357 -0.15131,0 -0.0357,0.0357 0,0.10087 0,0.15131"
     id="path3911"
     inkscape:connector-curvature="0" />
  <path
     style="fill:none;stroke:#000000;stroke-width:1px;stroke-linecap:butt;stroke-linejoin:miter;stroke-opacity:1"
     d="m 22.177935,99.02178 c -0.10935,-1.29164 0.81274,0.0432 1.06992,-0.21398 0.0504,-0.0504 -0.0504,-0.16355 0,-0.21398 0.0504,-0.0504 0.16355,0.0504 0.21398,0 0.0504,-0.0504 -0.0504,-0.16355 0,-0.21399 0.0504,-0.0504 0.16355,0.0504 0.21399,0 0.0504,-0.0504 -0.0504,-0.16354 0,-0.21398 0.0504,-0.0504 0.16354,0.0504 0.21398,0 0.0504,-0.0504 -0.0319,-0.15018 0,-0.21398 0.0902,-0.18045 0.33774,-0.24752 0.42796,-0.42797 0.0319,-0.0638 -0.0504,-0.16354 0,-0.21398 0.11278,-0.11278 0.28531,-0.14266 0.42797,-0.21398 0.14266,-0.0713 0.27666,-0.16355 0.42797,-0.21399 0.13533,-0.0451 0.30037,0.0638 0.42796,0 0.18045,-0.0902 0.24752,-0.33774 0.42797,-0.42796 0.0638,-0.0319 0.15018,0.0319 0.21398,0 0.18045,-0.0902 0.24752,-0.33775 0.42797,-0.42797 0.0638,-0.0319 0.16354,0.0504 0.21398,0 0.0504,-0.0504 -0.0504,-0.16355 0,-0.21398 0.10087,-0.10087 0.30037,0.0638 0.42797,0 0.0902,-0.0451 0.12376,-0.16887 0.21398,-0.21398 0.13449,-0.0673 0.72144,0.0672 0.85593,0 0.0902,-0.0451 0.12376,-0.16888 0.21399,-0.21399 0.13449,-0.0672 0.72143,0.0672 0.85593,0 0.0902,-0.0451 0.12376,-0.16887 0.21398,-0.21398 0.0774,-0.0387 0.92108,0 1.06992,0 0.0713,0 0.16354,0.0504 0.21398,0 0.0504,-0.0504 -0.0504,-0.16355 0,-0.21398 0.0504,-0.0504 0.14265,0 0.21398,0 0.42797,0 0.85593,0 1.2839,0 0.0713,0 0.16355,0.0504 0.21398,0 0.0504,-0.0504 -0.0504,-0.16355 0,-0.21399 0.01,-0.01 0.96903,0 1.06992,0 1.21257,0 -1.42656,0 -0.21398,0 1.06991,0 2.13983,0 3.20974,0 0.35664,0 0.71328,0 1.06992,0 0.0713,0 0.14265,0 0.21398,0 0.0713,0 0.15019,-0.0319 0.21398,0 0.0902,0.0451 0.12376,0.16887 0.21399,0.21399 0.0638,0.0319 0.14265,0 0.21398,0 0.0713,0.0713 0.12376,0.16887 0.21398,0.21398 0.17119,0.0856 0.47076,-0.0856 0.64195,0 0.0902,0.0451 0.12376,0.16887 0.21398,0.21398 0.0638,0.0319 0.15019,-0.0319 0.21399,0 0.11428,0.0571 0.52929,0.5293 0.64195,0.64195 0.0713,0.0713 0.14265,0.14266 0.21398,0.21398 0.0713,0.0713 0.16887,0.12376 0.21398,0.21399 0.0319,0.0638 -0.0504,0.16354 0,0.21398 0.0504,0.0504 0.16355,-0.0504 0.21399,0 0.0504,0.0504 -0.0319,0.15019 0,0.21398 0.12839,0.25678 0.51355,0.38517 0.64194,0.64195 0.0319,0.0638 -0.0504,0.16355 0,0.21399 0.0504,0.0504 0.15019,-0.0319 0.21399,0 0.89054,0.44527 -0.22876,-0.0148 0.21398,0.42796 0.0504,0.0504 0.16355,-0.0504 0.21398,0 0.10088,0.10087 -0.10087,0.3271 0,0.42797 0.0504,0.0504 0.15019,-0.0319 0.21399,0 0.18044,0.0902 0.24752,0.33774 0.42796,0.42796 0.0638,0.0319 0.16355,-0.0504 0.21399,0 0.0504,0.0504 -0.0504,0.16355 0,0.21399 0.0504,0.0504 0.15018,-0.0319 0.21398,0 0.0902,0.0451 0.12376,0.16887 0.21398,0.21398 0.0638,0.0319 0.16355,-0.0504 0.21398,0 0.0504,0.0504 -0.0504,0.16355 0,0.21398 0.009,0.009 0.77735,0 0.85594,0 0.14265,0 0.28531,0 0.42796,0 0.0713,0 0.21399,-0.0713 0.21399,0 0,0.0713 -0.28531,0 -0.21399,0 0.14266,0 0.28531,0 0.42797,0 0.0713,0 0.16355,0.0504 0.21398,0 0.0504,-0.0504 -0.0504,-0.16354 0,-0.21398 0.10699,-0.10699 0.53496,0.10699 0.64195,0 0.0504,-0.0504 -0.0504,-0.16355 0,-0.21398 0.0504,-0.0504 0.15019,0.0319 0.21398,0 0.0902,-0.0451 0.12376,-0.16887 0.21399,-0.21399 0.0638,-0.0319 0.15018,0.0319 0.21398,0 0.0902,-0.0451 0.14266,-0.14265 0.21398,-0.21398 0.12586,-0.12585 0.75684,-0.80639 0.85594,-0.85593 0.0638,-0.0319 0.16354,0.0504 0.21398,0 0.0504,-0.0504 -0.0504,-0.16355 0,-0.21398 0.0663,-0.0663 1.00365,0.0662 1.06991,0 0.0504,-0.0504 -0.0504,-0.16355 0,-0.21399 0.007,-0.007 0.59006,0 0.64195,0 0.92726,0 1.85452,0 2.78178,0 0.57062,0 1.14125,0 1.71187,0 0.0713,0 0.16354,-0.0504 0.21398,0 0.0504,0.0504 -0.0504,0.16355 0,0.21399 0.10087,0.10087 0.32709,-0.10088 0.42797,0 0.0504,0.0504 -0.0319,0.15018 0,0.21398 0.0451,0.0902 0.16887,0.12376 0.21398,0.21398 0.0319,0.0638 -0.0504,0.16355 0,0.21398 0.0504,0.0504 0.15019,-0.0319 0.21398,0 0.89055,0.44528 -0.22875,-0.0148 0.21399,0.42797 0.0504,0.0504 0.16354,-0.0504 0.21398,0 0.0504,0.0504 -0.0504,0.16355 0,0.21398 0.0504,0.0504 0.16355,-0.0504 0.21398,0 0.0504,0.0504 -0.0319,0.15019 0,0.21399 0.0451,0.0902 0.16887,0.12376 0.21398,0.21398 0.0319,0.0638 -0.0504,0.16355 0,0.21398 0.0504,0.0504 0.16355,-0.0504 0.21399,0 0.10699,0.10699 -0.10699,0.53496 0,0.64195 0.0504,0.0504 0.16354,-0.0504 0.21398,0 0.10087,0.10087 -0.10087,0.3271 0,0.42797 0.0504,0.0504 0.16355,-0.0504 0.21398,0 0.44274,0.44274 -0.67656,-0.0173 0.21399,0.42796 0.0638,0.0319 0.16354,-0.0504 0.21398,0 0.44274,0.44274 -0.67656,-0.0173 0.21398,0.42797 0.11609,0.058 0.79738,-0.0585 0.85594,0 0.0504,0.0504 -0.0504,0.16355 0,0.21398 0.01,0.01 0.96902,0 1.06991,0 0.42797,0 0.85593,0 1.2839,0 0.0964,0 0.57683,0.0326 0.64195,0 0.0902,-0.0451 0.12376,-0.16887 0.21398,-0.21398 0.0638,-0.0319 0.15019,0.0319 0.21398,0 0.0902,-0.0451 0.12376,-0.16887 0.21399,-0.21398 0.12759,-0.0638 0.32709,0.10087 0.42796,0 0.0504,-0.0504 -0.0504,-0.16355 0,-0.21399 0.0504,-0.0504 0.15019,0.0319 0.21399,0 0.18044,-0.0902 0.24752,-0.33774 0.42796,-0.42796 0.0638,-0.0319 0.16355,0.0504 0.21399,0 0.0504,-0.0504 -0.0504,-0.16355 0,-0.21398 0.0504,-0.0504 0.16354,0.0504 0.21398,0 0.0504,-0.0504 -0.0504,-0.16355 0,-0.21399 0.0504,-0.0504 0.16355,0.0504 0.21398,0 0.44274,-0.44274 -0.67656,0.0173 0.21398,-0.42796 0.0638,-0.0319 0.16355,0.0504 0.21399,0 0.0504,-0.0504 -0.0319,-0.15019 0,-0.21399 0.0902,-0.18044 0.33774,-0.24752 0.42796,-0.42796 0.0638,-0.1276 -0.10087,-0.3271 0,-0.42797 0.0504,-0.0504 0.16355,0.0504 0.21399,0 0.10087,-0.10087 -0.14266,-0.42797 0,-0.42797 0.10087,0 0.15803,0.13006 0.21398,0.21399 0.0885,0.1327 0.16355,0.27666 0.21398,0.42796 0.0451,0.13534 -0.10087,0.3271 0,0.42797 0.0504,0.0504 0.16355,-0.0504 0.21399,0 0.0504,0.0504 0,0.14266 0,0.21398 0,0.0713 0,0.14266 0,0.21399 0,0.0713 0.0713,0.21398 0,0.21398 -0.0713,0 0,-0.28531 0,-0.21398 0,0.14265 0,0.28531 0,0.42796 0,0.0713 0.0319,0.15019 0,0.21399 -0.0451,0.0902 -0.16888,0.12376 -0.21399,0.21398 -0.0638,0.12759 0.10088,0.32709 0,0.42796 -0.0504,0.0504 -0.16354,-0.0504 -0.21398,0 -0.0504,0.0504 0.0319,0.15019 0,0.21399 -0.0451,0.0902 -0.16887,0.12376 -0.21398,0.21398 -0.0319,0.0638 0.0504,0.16355 0,0.21398 -0.0504,0.0504 -0.16355,-0.0504 -0.21399,0 -0.10087,0.10088 0.10088,0.3271 0,0.42797 -0.0504,0.0504 -0.16354,-0.0504 -0.21398,0 -0.0504,0.0504 0.0504,0.16355 0,0.21398 -0.0504,0.0504 -0.16355,-0.0504 -0.21398,0 -0.0504,0.0504 0.0319,0.15019 0,0.21399 -0.0496,0.0991 -0.73008,0.73008 -0.85593,0.85593 -0.0713,0.0713 -0.16888,0.12376 -0.21399,0.21398 -0.0319,0.0638 0.0504,0.16355 0,0.21398 -0.10087,0.10088 -0.32709,-0.10087 -0.42796,0 -0.0504,0.0504 0.0504,0.16355 0,0.21399 -0.0504,0.0504 -0.16355,-0.0504 -0.21399,0 -0.0504,0.0504 0.0504,0.16354 0,0.21398 -0.0504,0.0504 -0.16354,-0.0504 -0.21398,0 -0.0504,0.0504 0.0504,0.16355 0,0.21398 -0.0504,0.0504 -0.16355,-0.0504 -0.21398,0 -0.0504,0.0504 0.0504,0.16355 0,0.21399 -0.10699,0.10699 -0.53496,-0.107 -0.64195,0 -0.0504,0.0504 0.0504,0.16354 0,0.21398 -0.0504,0.0504 -0.15019,-0.0319 -0.21398,0 -0.7097,0.70969 0.20174,-0.10087 -0.42797,0.21398 -0.0902,0.0451 -0.12376,0.16887 -0.21398,0.21399 -0.1276,0.0638 -0.3271,-0.10088 -0.42797,0 -0.0504,0.0504 0.0504,0.16354 0,0.21398 -0.0504,0.0504 -0.14266,0 -0.21398,0 -0.35664,0 -0.71328,0 -1.06992,0 -0.0964,0 -0.57683,-0.0326 -0.64195,0 -0.0902,0.0451 -0.12376,0.16887 -0.21398,0.21398 -0.0553,0.0277 -1.13223,0 -1.2839,0 -0.14265,0 -0.28531,0 -0.42797,0 -0.0713,0 -0.15018,0.0319 -0.21398,0 -0.0902,-0.0451 -0.12376,-0.16887 -0.21398,-0.21398 -0.0651,-0.0326 -0.54558,0 -0.64195,0 -0.0713,0 -0.14266,0 -0.21398,0 -0.0713,0 -0.15019,0.0319 -0.21399,0 -0.0902,-0.0451 -0.12376,-0.16887 -0.21398,-0.21398 -0.0638,-0.0319 -0.16355,0.0504 -0.21398,0 -0.0504,-0.0504 0.0504,-0.16355 0,-0.21399 -0.0504,-0.0504 -0.16355,0.0504 -0.21399,0 -0.0504,-0.0504 0.0504,-0.16354 0,-0.21398 -0.0504,-0.0504 -0.16354,0.0504 -0.21398,0 -0.0504,-0.0504 0.0504,-0.16355 0,-0.21398 -0.0504,-0.0504 -0.16355,0.0504 -0.21398,0 -0.0504,-0.0504 0.0504,-0.16355 0,-0.21399 -0.0504,-0.0504 -0.16355,0.0504 -0.21398,0 -0.0504,-0.0504 0.0319,-0.15018 0,-0.21398 -0.0451,-0.0902 -0.16888,-0.12376 -0.21399,-0.21398 -0.0319,-0.0638 0.0504,-0.16355 0,-0.21399 -0.0504,-0.0504 -0.16354,0.0504 -0.21398,0 -0.0504,-0.0504 0.0504,-0.16354 0,-0.21398 -0.0504,-0.0504 -0.16355,0.0504 -0.21398,0 -0.0504,-0.0504 0.0504,-0.16355 0,-0.21398 -0.0504,-0.0504 -0.16355,0.0504 -0.21399,0 -0.0504,-0.0504 -0.0713,-0.21399 0,-0.21399 0.0713,0 0.0713,0.21399 0,0.21399 -0.44527,0 -0.0861,-0.30009 -0.21398,-0.42797 -0.10699,-0.10699 -0.53496,0.10699 -0.64195,0 -0.0504,-0.0504 0.0504,-0.16354 0,-0.21398 -0.10087,-0.10087 -0.32709,0.10087 -0.42797,0 -0.0504,-0.0504 0.0504,-0.16355 0,-0.21398 -0.10087,-0.10088 -0.32709,0.10087 -0.42796,0 -0.0504,-0.0504 0.0504,-0.16355 0,-0.21399 -0.01,-0.01 -0.96902,0 -1.06992,0 -0.35664,0 -0.71327,0 -1.06991,0 -0.0713,0 -0.16355,-0.0504 -0.21398,0 -0.0504,0.0504 0.0504,0.16355 0,0.21399 -0.0504,0.0504 -0.15019,-0.0319 -0.21399,0 -0.0902,0.0451 -0.12376,0.16887 -0.21398,0.21398 -0.0638,0.0319 -0.16355,-0.0504 -0.21398,0 -0.0504,0.0504 0.0504,0.16355 0,0.21398 -0.10088,0.10087 -0.30038,-0.0638 -0.42797,0 -0.0902,0.0451 -0.12376,0.16887 -0.21398,0.21398 -0.0638,0.0319 -0.16355,-0.0504 -0.21399,0 -0.0504,0.0504 0.0504,0.16355 0,0.21399 -0.0504,0.0504 -0.15018,-0.0319 -0.21398,0 -0.0902,0.0451 -0.12376,0.16887 -0.21398,0.21398 -0.1276,0.0638 -0.30037,-0.0638 -0.42797,0 -0.0902,0.0451 -0.12376,0.16887 -0.21398,0.21398 -0.0638,0.0319 -0.16355,-0.0504 -0.21398,0 -0.0504,0.0504 0.0504,0.16355 0,0.21399 -0.0504,0.0504 -0.15019,-0.0319 -0.21399,0 -0.0902,0.0451 -0.12376,0.16887 -0.21398,0.21398 -0.0638,0.0319 -0.15019,-0.0319 -0.21398,0 -0.18045,0.0902 -0.24752,0.33774 -0.42797,0.42797 -0.12759,0.0638 -0.30037,-0.0638 -0.42797,0 -0.18044,0.0902 -0.24752,0.33774 -0.42796,0.42796 -0.1276,0.0638 -0.30037,-0.0638 -0.42797,0 -0.0902,0.0451 -0.12376,0.16887 -0.21398,0.21399 -0.0638,0.0319 -0.16355,-0.0504 -0.21398,0 -0.0504,0.0504 0.0504,0.16354 0,0.21398 -0.10088,0.10087 -0.3271,-0.10087 -0.42797,0 -0.0504,0.0504 0.0504,0.16355 0,0.21398 -0.0438,0.0438 -0.55711,-0.0424 -0.64195,0 -0.0902,0.0451 -0.12376,0.16887 -0.21398,0.21398 -0.17119,0.0856 -0.47077,-0.0856 -0.64195,0 -0.0902,0.0451 -0.12376,0.16888 -0.21398,0.21399 -0.135,0.0675 -0.93492,-0.0675 -1.06992,0 -0.0902,0.0451 -0.12376,0.16887 -0.21398,0.21398 -0.135,0.0675 -0.93492,-0.0675 -1.06992,0 -0.0902,0.0451 -0.12376,0.16887 -0.21398,0.21398 -0.0651,0.0326 -0.54558,0 -0.64195,0 -0.57062,0 -1.14124,0 -1.71186,0 -0.14884,0 -0.99254,0.0387 -1.06992,0 -0.0902,-0.0451 -0.12376,-0.16887 -0.21398,-0.21398 -0.0638,-0.0319 -0.15019,0.0319 -0.21399,0 -0.0902,-0.0451 -0.12376,-0.16887 -0.21398,-0.21398 -0.12759,-0.0638 -0.32709,0.10087 -0.42797,0 -0.0504,-0.0504 0.0504,-0.16355 0,-0.21399 -0.10087,-0.10087 -0.32709,0.10088 -0.42796,0 -0.0504,-0.0504 0.0504,-0.16354 0,-0.21398 -0.10087,-0.10087 -0.3271,0.10087 -0.42797,0 -0.0504,-0.0504 0.0504,-0.16355 0,-0.21398 -0.0504,-0.0504 -0.16354,0.0504 -0.21398,0 -0.0504,-0.0504 0.0504,-0.16355 0,-0.21398 -0.0504,-0.0504 -0.15019,0.0319 -0.21398,0 -0.18045,-0.0902 -0.24752,-0.33775 -0.42797,-0.42797 -0.0638,-0.0319 -0.16355,0.0504 -0.21398,0 -0.0504,-0.0504 0.0504,-0.16355 0,-0.21398 -0.0504,-0.0504 -0.16355,0.0504 -0.21399,0 -0.0504,-0.0504 0.0504,-0.16355 0,-0.21399 -0.0504,-0.0504 -0.16354,0.0504 -0.21398,0 0,-0.57062 0.0713,0.0713 -0.21398,-0.21398 -0.0504,-0.0504 0.0504,-0.16355 0,-0.21398 -0.0504,-0.0504 -0.16355,0.0504 -0.21399,0 -0.0504,-0.0504 0.0504,-0.16355 0,-0.21399 -0.0504,-0.0504 -0.16354,0.0504 -0.21398,0 -0.0504,-0.0504 0,-0.14265 0,-0.21398 -0.0713,0 -0.15018,0.0319 -0.21398,0 -0.0902,-0.0451 -0.14266,-0.14265 -0.21398,-0.21398 -0.0713,-0.0713 -0.16888,-0.12376 -0.21399,-0.21399 -0.0319,-0.0638 0.0504,-0.16354 0,-0.21398 -0.44274,-0.44274 0.0173,0.67657 -0.42796,-0.21398 -0.0319,-0.0638 0.0504,-0.16355 0,-0.21398 -0.0504,-0.0504 -0.16355,0.0504 -0.21399,0 -0.0504,-0.0504 0.0504,-0.16355 0,-0.21399 -0.0504,-0.0504 -0.16354,0.0504 -0.21398,0 -0.0504,-0.0504 0.0319,-0.15018 0,-0.21398 -0.0902,-0.18045 -0.33774,-0.24752 -0.42797,-0.42797 -0.0319,-0.0638 0.0504,-0.16354 0,-0.21398 -0.0504,-0.0504 -0.16354,0.0504 -0.21398,0 -0.0504,-0.0504 0.0504,-0.16355 0,-0.21398 -0.0504,-0.0504 -0.16355,0.0504 -0.21398,0 -0.0504,-0.0504 0.0504,-0.16355 0,-0.21399 -0.0504,-0.0504 -0.16355,0.0504 -0.21398,0 -0.0504,-0.0504 0.0504,-0.16354 0,-0.21398 -0.0504,-0.0504 -0.15019,0.0319 -0.21399,0 -0.0902,-0.0451 -0.12376,-0.16887 -0.21398,-0.21398 -0.0638,-0.0319 -0.15019,0.0319 -0.21398,0 -0.0902,-0.0451 -0.12376,-0.16887 -0.21399,-0.21398 -0.0638,-0.0319 -0.16354,0.0504 -0.21398,0 -0.0504,-0.0504 0.0504,-0.16355 0,-0.21399 -0.10087,-0.10087 -0.30037,0.0638 -0.42797,0 -0.0902,-0.0451 -0.12376,-0.16887 -0.21398,-0.21398 -0.12759,-0.0638 -0.32709,0.10087 -0.42797,0 -0.0504,-0.0504 0.0504,-0.16355 0,-0.21398 -0.10087,-0.10088 -0.30037,0.0638 -0.42796,0 -0.0902,-0.0451 -0.12376,-0.16888 -0.21398,-0.21399 -0.17119,-0.0856 -0.47077,0.0856 -0.64195,0 -0.0902,-0.0451 -0.12376,-0.16887 -0.21399,-0.21398 -0.0638,-0.0319 -0.14265,0 -0.21398,0 -0.0713,0 -0.14266,0 -0.21398,0 -0.20732,0 -1.15631,0.0425 -1.2839,0 -0.3644,-0.12147 -0.71328,-0.28531 -1.06992,-0.42797 z"
     id="path3913"
     inkscape:connector-curvature="0" />
</svg>
